<mxfile host="app.diagrams.net" modified="2024-03-21T13:53:26.584Z" agent="Mozilla/5.0 (Windows NT 10.0; Win64; x64) AppleWebKit/537.36 (KHTML, like Gecko) Chrome/121.0.0.0 Safari/537.36 OPR/107.0.0.0" version="24.0.7" etag="461leFdYx4culpc4DHNz" type="github">
  <diagram name="Page-1" id="so11YrUz_T8D6X9IEwJL">
    <mxGraphModel>
      <root>
        <mxCell id="0" />
        <mxCell id="1" parent="0" />
      </root>
    </mxGraphModel>
  </diagram>
</mxfile>
